<?xml version="1.0" encoding="UTF-8" standalone="no"?>
<svg
   xmlns:dc="http://purl.org/dc/elements/1.1/"
   xmlns:cc="http://creativecommons.org/ns#"
   xmlns:rdf="http://www.w3.org/1999/02/22-rdf-syntax-ns#"
   xmlns:svg="http://www.w3.org/2000/svg"
   xmlns="http://www.w3.org/2000/svg"
   xmlns:sodipodi="http://sodipodi.sourceforge.net/DTD/sodipodi-0.dtd"
   xmlns:inkscape="http://www.inkscape.org/namespaces/inkscape"
   version="1.0"
   width="300pt"
   height="300pt"
   viewBox="0 0 299.99999 300.00001"
   preserveAspectRatio="xMidYMid meet"
   id="svg22"
   sodipodi:docname="fass_edited_white.svg"
   inkscape:version="0.92.1 r15371">
  <defs
     id="defs26" />
  <sodipodi:namedview
     pagecolor="#ffffff"
     bordercolor="#666666"
     borderopacity="1"
     objecttolerance="10"
     gridtolerance="10"
     guidetolerance="10"
     inkscape:pageopacity="0"
     inkscape:pageshadow="2"
     inkscape:window-width="1920"
     inkscape:window-height="1001"
     id="namedview24"
     showgrid="false"
     inkscape:zoom="2.1998064"
     inkscape:cx="152.31522"
     inkscape:cy="157.74423"
     inkscape:window-x="-9"
     inkscape:window-y="-9"
     inkscape:window-maximized="1"
     inkscape:current-layer="g20" />
  <metadata
     id="metadata10">
Created by potrace 1.12, written by Peter Selinger 2001-2015
<rdf:RDF>
  <cc:Work
     rdf:about="">
    <dc:format>image/svg+xml</dc:format>
    <dc:type
       rdf:resource="http://purl.org/dc/dcmitype/StillImage" />
    <dc:title></dc:title>
  </cc:Work>
</rdf:RDF>
</metadata>
  <g
     transform="matrix(0.1,0,0,-0.1,-15,303.00747)"
     id="g20"
     style="fill:#000000;stroke:none">
    <path
       d="m 1618.8133,3012.5047 c -4.5436,-12.1163 -21.2034,-60.5811 -37.8632,-106.0169 l -30.2905,-83.299 -95.4152,-3.0291 c -53.0085,-1.5145 -102.9879,-3.029 -112.0751,-3.029 -7.5726,-1.5146 13.6308,-28.776 45.4359,-63.6102 l 60.581,-62.0956 -59.0665,39.3777 c -54.523,36.3487 -69.6683,39.3777 -216.5774,37.8632 -84.8135,-1.5145 -155.9963,-6.0581 -155.9963,-9.0872 0,-3.029 6.0581,-18.1743 15.1453,-33.3196 12.1162,-24.2324 6.0581,-28.776 -49.97943,-39.3777 -34.83412,-6.0581 -118.13312,-12.1162 -184.77231,-13.6307 -106.01689,-3.0291 -133.27838,-10.6017 -219.60643,-57.552 -54.52297,-28.7761 -109.04595,-56.0375 -121.16216,-60.5811 -19.68886,-6.0581 -19.68886,-10.6017 -1.51453,-33.3196 18.17432,-21.2034 18.17432,-28.776 -1.51453,-51.4939 -24.23243,-28.7761 -102.98784,-162.0544 -102.98784,-175.6852 0,-4.5436 43.92129,-9.0871 95.41521,-9.0871 h 96.92973 l 9.08716,-290.7892 c 4.54358,-160.5399 19.68886,-352.8849 33.3196,-428.6112 42.40676,-234.7517 140.85102,-492.2213 251.4115,-654.27574 24.23243,-34.83412 43.92128,-66.63919 43.92128,-71.18277 0,-4.54358 -49.97939,-9.08716 -110.56047,-9.08716 -80.26994,0 -125.70575,7.57263 -169.62704,30.29054 -33.3196,16.6598 -62.09561,30.29054 -63.61014,30.29054 -9.08716,0 15.14527,-84.81352 42.40676,-149.93818 27.26149,-62.09561 27.26149,-68.15372 4.54358,-95.41521 -15.14527,-15.14527 -39.3777,-27.26149 -56.0375,-27.26149 -15.14527,0 -53.00845,-24.23243 -81.78446,-53.00844 -51.49392,-51.49393 -53.00845,-57.55203 -43.92129,-127.22028 6.05811,-51.49392 1.51453,-96.92973 -13.63074,-145.3946 -22.71791,-63.61014 -22.71791,-74.21183 -1.51453,-106.0169 49.97939,-77.24088 308.96353,-113.589527 569.46219,-78.7554 551.28789,69.66824 560.37509,71.18277 630.04329,18.17432 l 51.4939,-39.377703 45.4358,33.319593 c 53.0085,39.3777 121.1622,40.89223 340.7686,7.57264 307.449,-48.464869 357.4284,-54.522977 434.6693,-54.522977 205.9757,0 422.5531,69.668247 451.3291,143.880067 10.6017,27.26149 10.6017,49.9794 -1.5145,71.18278 -9.0872,16.6598 -15.1453,80.26993 -15.1453,140.85102 1.5145,102.98784 -1.5145,113.58953 -39.3777,143.88007 -21.2034,16.6598 -66.6392,34.83412 -98.4443,39.37771 -40.8922,7.57263 -65.1246,21.20337 -78.7554,48.46486 -18.1743,33.3196 -15.1453,43.92129 31.8051,112.07501 63.6101,95.4152 66.6392,124.19122 9.0871,93.90068 -27.2614,-13.63075 -87.8425,-21.20338 -166.5979,-21.20338 h -125.7058 l 75.7264,140.85102 C 2666.866,1298.06 2721.389,1532.8117 2738.0488,2012.9168 l 9.0872,265.0422 90.8716,1.5145 c 48.4649,1.5146 93.9007,6.0582 98.4442,10.6017 9.0872,9.0872 -92.3861,139.3365 -137.8219,178.7142 -30.2906,24.2325 -30.2906,24.2325 3.029,34.8342 46.9504,15.1452 40.8923,31.805 -15.1452,56.0375 -27.2615,10.6017 -77.2409,36.3486 -110.5605,57.552 -60.5811,37.8632 -146.9091,49.9794 -381.6608,53.0084 -83.299,1.5146 -92.3862,6.0581 -62.0956,36.3487 30.2905,30.2905 1.5145,39.3777 -155.9963,43.9213 -124.1913,4.5436 -160.5399,1.5145 -193.8595,-19.6889 -33.3196,-21.2034 -31.8051,-16.6598 12.1162,30.2906 l 53.0085,54.5229 h -107.5315 c -59.0665,0 -119.6476,4.5436 -134.7929,10.6017 -19.6888,7.5727 -24.2324,4.5436 -16.6598,-13.6307 10.6017,-28.776 -42.4067,-83.299 -56.0375,-59.0666 -13.6307,21.2034 -7.5726,204.4612 6.0581,213.5483 6.0581,4.5436 6.0581,21.2034 0,37.8632 -9.0871,24.2325 -13.6307,25.747 -19.6888,7.5727 z m -43.9213,-230.2082 c 43.9213,-43.9212 16.6598,-54.5229 -60.5811,-24.2324 -104.5024,39.3777 -106.0169,42.4068 -25.747,42.4068 37.8632,0 75.7264,-7.5727 86.3281,-18.1744 z m 257.4696,-54.5229 c -21.2034,-22.7179 -34.8341,-49.9794 -31.8051,-59.0666 4.5436,-10.6017 0,-19.6888 -10.6017,-19.6888 -9.0871,0 -12.1162,7.5726 -7.5726,15.1452 4.5436,9.0872 -6.0581,15.1453 -25.747,15.1453 -34.8341,0 -84.8135,24.2324 -72.6973,34.8341 16.6598,12.1162 174.1707,66.6392 180.2288,62.0956 4.5435,-3.029 -10.6017,-25.7469 -31.8051,-48.4648 z m -533.1135,12.1162 c 40.8922,-16.6598 42.4067,-18.1743 13.6307,-33.3196 -16.6598,-9.0872 -37.8632,-25.747 -46.9503,-36.3487 -15.1453,-18.1743 -25.747,-18.1743 -75.7264,1.5146 -83.299,33.3196 -127.2203,56.0375 -127.2203,66.6392 0,16.6598 192.345,18.1743 236.2663,1.5145 z m 852.6787,-24.2324 c 10.6017,-10.6017 -95.4152,-65.1247 -145.3946,-74.2119 -57.552,-10.6017 -84.8135,1.5146 -49.9794,22.7179 16.6598,10.6017 16.6598,16.6598 1.5145,34.8342 -13.6307,18.1743 -13.6307,24.2324 1.5146,30.2905 18.1743,9.0872 180.2287,-3.0291 192.3449,-13.6307 z m -636.1014,-136.3075 c -34.8341,-36.3486 -66.6392,-63.6101 -71.1827,-60.5811 -13.6308,13.6308 62.0956,133.2784 92.3861,143.8801 56.0375,21.2034 48.4649,-12.1162 -21.2034,-83.299 z m 289.2747,-86.328 c 0,-13.6308 -78.7554,25.7469 -137.822,66.6392 -31.805,22.7179 -37.8631,36.3486 -31.805,75.7263 l 7.5726,48.4649 80.2699,-89.3571 c 43.9213,-48.4649 80.27,-93.9007 81.7845,-101.4733 z m -795.1267,151.4527 c 43.9212,-33.3196 13.6307,-56.0375 -72.69734,-56.0375 -113.58954,0 -136.30744,21.2034 -54.52298,49.9794 84.81352,30.2905 92.38615,30.2905 127.22032,6.0581 z m 145.3946,1.5145 c 1.5145,-10.6017 1.5145,-24.2324 1.5145,-30.2905 -1.5145,-4.5436 25.7469,-19.6889 60.5811,-33.3196 33.3196,-13.6308 57.552,-28.776 53.0084,-33.3196 -9.0871,-9.0872 -98.4443,27.2615 -137.822,57.552 -15.1452,12.1162 -24.2324,30.2905 -18.1743,39.3777 15.1453,24.2324 39.3777,22.7179 40.8923,0 z m 966.2683,-60.5811 c -74.2119,-62.0956 -86.3281,-51.4939 -19.6889,18.1743 33.3196,34.8342 62.0956,53.0085 65.1247,42.4068 3.029,-10.6017 -16.6598,-37.8632 -45.4358,-60.5811 z m 289.2746,45.4358 c 31.8051,-12.1162 33.3196,-16.6598 13.6308,-27.2615 -13.6308,-7.5726 -57.552,-21.2033 -96.9297,-30.2905 -62.0957,-13.6307 -77.2409,-12.1162 -96.9298,7.5726 -22.7179,22.7179 -21.2034,27.2615 12.1162,54.523 37.8632,30.2906 77.2409,30.2906 168.1125,-4.5436 z m -1655.3781,0 c 0,-10.6017 6.05811,-30.2905 10.60169,-43.9213 9.08717,-19.6888 -1.51452,-25.7469 -49.97939,-33.3195 -34.83412,-4.5436 -89.3571,-4.5436 -122.67669,0 l -62.09562,9.0871 72.6973,42.4068 c 77.24089,43.9213 149.93819,57.552 151.45271,25.7469 z m 1868.9265,-13.6307 c 40.8922,-18.1743 74.2118,-37.8632 74.2118,-43.9213 0,-12.1162 -169.627,-33.3196 -180.2287,-22.7179 -3.0291,4.5436 3.029,18.1743 15.1452,31.8051 16.6598,21.2033 16.6598,27.2615 -9.0871,45.4358 -25.747,19.6888 -25.747,21.2034 -1.5145,21.2034 13.6307,0 60.581,-15.1453 101.4733,-31.8051 z m -757.2636,-51.4939 c 51.4939,-24.2325 51.4939,-24.2325 6.0581,-15.1453 -24.2324,6.0581 -51.4939,16.6598 -59.0665,24.2324 -21.2034,19.6889 -4.5436,16.6598 53.0084,-9.0871 z m -861.7659,-19.6889 c 72.6973,-15.1453 136.3074,-31.8051 142.3655,-37.8632 6.0581,-4.5435 -13.6307,-21.2033 -43.9213,-34.8341 -71.1827,-33.3196 -142.36551,-18.1743 -216.57734,46.9504 -68.15372,60.581 -60.58108,62.0956 118.13314,25.7469 z m 1413.0538,-10.6017 c -24.2325,-21.2034 -60.5811,-45.4358 -80.27,-53.0084 -69.6682,-30.2906 -213.5483,-9.0872 -178.7141,25.7469 10.6016,12.1163 216.5773,59.0666 274.1294,63.6102 25.7469,1.5145 22.7179,-4.5436 -15.1453,-36.3487 z m -1022.3058,1.5146 c 0,-33.3196 -231.7227,-205.9757 -251.4115,-186.2869 -7.5727,7.5727 39.3777,90.8716 72.6973,127.2203 60.5811,65.1247 178.7142,102.9878 178.7142,59.0666 z m 1363.0744,-24.2325 c 0,-36.3486 -198.4031,-63.6101 -219.6064,-28.776 -16.6598,25.747 3.029,34.8341 87.8425,43.9213 83.299,9.0872 131.7639,3.029 131.7639,-15.1453 z M 803.99767,2499.08 c 21.20338,-36.3487 7.57264,-46.9504 -60.58108,-46.9504 -63.61014,0 -210.51927,43.9213 -210.51927,63.6102 0,6.0581 57.55203,12.1162 128.7348,12.1162 109.04596,0 130.24933,-4.5436 142.36555,-28.776 z m 1249.48493,-24.2325 c 56.0375,-51.4939 93.9006,-143.88 66.6391,-160.5398 -57.552,-37.8632 -186.2868,1.5145 -260.4986,78.7554 -36.3487,37.8632 -49.9794,59.0665 -33.3196,53.0084 22.7179,-7.5726 25.747,-3.029 19.6888,21.2034 -4.5435,16.6598 -4.5435,30.2906 1.5146,30.2906 4.5436,0 60.5811,-40.8923 125.7057,-90.8717 63.6102,-49.9794 122.6767,-90.8716 128.7348,-90.8716 6.0581,0 -19.6888,24.2324 -59.0665,54.523 -83.299,65.1246 -124.1913,121.1621 -96.9298,131.7638 39.3777,16.6598 68.1537,9.0872 107.5315,-27.2615 z m -520.9974,10.6017 c 0,-27.2615 -51.4939,-81.7844 -106.0169,-109.0459 -60.581,-31.8051 -172.6561,-40.8922 -187.8013,-16.6598 -12.1162,18.1743 119.6476,92.3861 163.5689,92.3861 16.6598,1.5146 48.4649,10.6017 69.6682,22.7179 43.9213,24.2325 60.5811,27.2615 60.5811,10.6017 z m 106.0169,-25.7469 c 0,-21.2034 7.5727,-37.8632 15.1453,-37.8632 9.0872,0 15.1453,10.6017 15.1453,22.7179 0,12.1162 7.5726,22.7179 15.1452,22.7179 9.0872,0 15.1453,-24.2324 15.1453,-53.0084 0,-36.3487 -7.5726,-53.0085 -22.7179,-53.0085 -12.1162,0 -24.2324,9.0872 -24.2324,19.6889 -1.5146,9.0871 -7.5727,-6.0581 -12.1162,-34.8342 l -10.6017,-53.0084 -30.2906,60.5811 c -31.805,59.0665 -31.805,87.8425 -1.5145,125.7057 22.7179,28.776 40.8922,21.2034 40.8922,-19.6888 z m 852.6788,-30.2906 c 48.4649,-43.9213 51.4939,-53.0084 9.0871,-53.0084 -16.6598,0 -25.7469,-6.0581 -21.2033,-15.1453 4.5435,-9.0872 -7.5727,-15.1453 -28.776,-15.1453 -19.6889,0 -39.3778,-6.0581 -42.4068,-13.6307 -4.5436,-13.6307 -51.4939,-21.2034 -113.5895,-18.1743 -18.1744,1.5145 -53.0085,19.6888 -75.7264,40.8922 l -42.4068,37.8632 83.299,-6.0581 c 78.7554,-6.0581 77.2409,-1.5146 -7.5726,27.2615 -24.2324,9.0871 -16.6598,15.1452 37.8632,30.2905 106.0169,28.776 154.4817,25.747 201.4321,-15.1453 z M 881.23855,2444.557 c 0,-3.0291 -18.17432,-18.1743 -40.89223,-30.2905 -24.23243,-13.6308 -28.77601,-19.6889 -12.11622,-15.1453 16.6598,4.5436 72.69731,13.6307 124.19123,18.1743 80.26997,7.5727 95.41517,4.5436 95.41517,-15.1453 0,-40.8922 -62.09558,-71.1827 -146.90909,-71.1827 -60.58109,0 -80.26994,6.0581 -80.26994,22.7179 0,27.2615 -7.57264,27.2615 -46.95034,7.5726 -34.83412,-19.6888 -36.34865,-3.029 -6.05811,40.8922 12.11622,18.1744 42.40676,36.3487 65.12467,39.3777 22.7179,3.0291 42.40675,7.5727 45.43581,9.0872 1.51453,0 3.02905,-1.5145 3.02905,-6.0581 z m -393.77704,-19.6888 c 0,-21.2034 -59.06656,-69.6683 -71.18277,-59.0666 -4.54359,6.0581 3.02905,24.2324 18.17432,40.8922 28.77601,31.8051 53.00845,39.3777 53.00845,18.1744 z m 209.00474,-13.6308 c 3.02905,-13.6307 -16.6598,-19.6888 -69.66825,-19.6888 -68.15372,0 -77.24088,-4.5436 -81.78446,-33.3196 -4.54358,-30.2906 -15.14527,-34.8342 -80.26994,-39.3777 l -75.72635,-4.5436 57.55203,39.3777 c 113.58953,78.7554 233.23717,106.0169 249.89697,57.552 z m 2144.57035,-12.1162 c 31.8051,-48.4649 13.6308,-48.4649 -43.9212,0 -40.8923,33.3196 -42.4068,36.3486 -13.6308,37.8632 18.1743,0 43.9213,-16.6598 57.552,-37.8632 z m -66.6391,-18.1743 c 106.0168,-54.523 116.6185,-83.299 28.776,-77.2409 -60.5811,4.5436 -66.6392,9.0871 -71.1828,46.9503 -4.5436,37.8632 -9.0872,40.8923 -80.2699,40.8923 -46.9504,0 -72.6973,6.0581 -66.6392,15.1452 16.6598,28.776 107.5314,15.1453 189.3159,-25.7469 z m -937.4923,-69.6683 c 4.5436,-6.0581 24.2324,-15.1453 45.4358,-18.1743 19.6888,-4.5436 37.8632,-13.6308 40.8922,-19.6889 1.5146,-7.5726 15.1453,-27.2614 27.2615,-42.4067 21.2034,-27.2615 22.7179,-27.2615 7.5726,4.5436 -27.2614,54.5229 -21.2033,63.6101 31.8051,48.4648 27.2615,-7.5726 78.7554,-13.6307 115.1041,-13.6307 59.0665,0 65.1246,3.029 56.0375,30.2905 -9.0872,28.776 -7.5727,28.776 43.9213,7.5727 69.6682,-28.7761 154.4817,-28.7761 237.7807,1.5145 36.3487,12.1162 107.5314,24.2324 157.5108,25.747 l 90.8717,3.029 -3.0291,-322.5943 c -3.029,-343.7976 -21.2034,-486.1632 -87.8426,-698.197 -59.0665,-186.2868 -262.0132,-561.88953 -302.9054,-561.88953 -12.1162,0 -258.9841,237.78076 -336.225,322.59433 -4.5436,6.0581 3.0291,21.2033 19.6889,33.3196 15.1452,12.1162 22.7179,22.7179 16.6598,22.7179 -7.5727,0 1.5145,18.1743 18.1743,39.3777 18.1743,22.7179 39.3777,66.6392 48.4648,99.9588 9.0872,33.3196 19.6889,57.552 24.2325,53.0084 15.1452,-16.6598 -13.6308,-102.9878 -51.4939,-146.9091 -21.2034,-25.747 -30.2906,-45.4358 -22.718,-45.4358 7.5727,0 22.718,10.6017 33.3196,22.7179 10.6017,13.6307 31.8051,19.6888 46.9504,15.1452 22.7179,-7.5726 25.7469,-1.5145 18.1743,48.4649 -6.0581,51.4939 1.5145,69.6683 68.1537,162.0544 87.8426,118.1331 104.5024,180.2287 72.6973,257.4696 -27.2615,65.1247 -80.2699,101.4733 -163.5689,109.046 -62.0956,4.5435 -62.0956,4.5435 -12.1162,-6.0581 146.9091,-33.3196 190.8304,-137.822 113.5895,-271.1004 -49.9794,-83.299 -63.6101,-84.8135 -21.2034,-1.5145 34.8342,68.1537 40.8923,142.3655 15.1453,190.8304 -22.7179,42.4068 -112.075,66.6392 -165.0834,46.9503 -49.9794,-19.6888 -63.6102,-39.3777 -63.6102,-93.9006 0,-49.9794 30.2906,-65.1247 78.7554,-40.8923 33.3196,18.1743 33.3196,18.1743 9.0872,-9.0871 -36.3487,-36.3487 -104.5024,-13.6308 -119.6476,39.3777 -7.5727,28.776 -10.6017,30.2905 -12.1163,9.0871 -1.5145,-16.6598 9.0872,-42.4067 22.7179,-57.552 43.9213,-48.4649 -15.1452,-49.9794 -119.6476,-4.5436 -130.2493,57.552 -157.5108,86.3281 -137.822,140.851 13.6308,33.3196 10.6017,57.5521 -9.0871,109.046 -15.1453,36.3486 -30.2906,57.552 -36.3487,48.4649 -6.0581,-9.0872 -1.5145,-30.2906 7.5727,-45.4359 19.6888,-30.2905 9.0871,-78.7554 -15.1453,-78.7554 -7.5726,0 -18.1743,12.1162 -22.7179,27.2615 -4.5436,13.6308 -4.5436,-1.5145 -1.5145,-33.3196 3.029,-33.3196 15.1452,-65.1246 25.7469,-72.6973 15.1453,-10.6017 15.1453,-13.6307 -3.029,-7.5726 -12.1163,3.029 -31.8051,-6.0581 -45.4359,-21.2034 -21.2033,-24.2324 -228.6935,-104.5024 -271.1003,-104.5024 -10.6017,0 -40.8922,-24.2324 -69.6682,-54.5229 -42.4068,-43.9213 -56.0376,-51.494 -80.27,-37.8632 -31.8051,16.6598 -44.1915,77.511 -43.34,134.4818 -3.07,28.1948 6.9913,33.6307 -12.6975,33.6307 -22.7179,0 -17.5317,11.6167 -19.6889,-86.3281 6.0581,-69.6682 15.1453,-90.8716 46.9504,-118.1331 45.538,-28.5262 50.5898,-17.4639 50.0203,-57.2818 -0.6944,-48.5387 -14.1302,-28.8169 -86.369,28.5058 -33.3196,34.8341 -36.3486,49.9794 -33.3196,154.4818 3.0291,104.5024 -1.2239,88.342 -19.6888,90.8716 -40.31888,5.5235 -43.02896,-156.0372 -19.6889,-227.1791 9.0872,-31.805 31.8051,-69.6682 56.0375,-87.8425 22.7179,-18.1743 84.8135,-65.1247 137.822,-106.0169 53.0085,-42.4068 101.4733,-75.7264 109.046,-75.7264 37.8631,0 -1.5146,-54.523 -149.9383,-201.4321 L 1006.9443,737.68495 955.45038,811.89677 C 682.8355,1192.0431 593.47841,1502.5211 593.47841,2065.9252 v 283.2166 l 72.6973,-9.0872 c 39.3777,-6.0581 113.58953,-18.1743 163.56892,-27.2615 71.18278,-12.1162 107.53143,-12.1162 159.02535,1.5146 140.85102,39.3777 139.33652,39.3777 127.22022,1.5145 -10.6016,-33.3196 -7.5726,-34.8341 39.3778,-24.2324 107.5314,21.2033 177.1997,27.2615 184.7723,15.1452 13.6307,-22.7179 -40.8922,-118.1331 -75.7264,-136.3074 -19.6888,-9.0872 -30.2905,-21.2034 -24.2324,-25.747 19.6889,-19.6888 54.523,-10.6017 106.0169,28.7761 l 49.9794,37.8631 36.3486,-42.4067 c 34.8342,-39.3777 39.3777,-40.8923 63.6102,-16.6598 16.6598,16.6598 21.2034,34.8341 13.6307,53.0084 -7.5726,18.1743 -13.6307,21.2034 -18.1743,9.0872 -12.1162,-34.8341 -37.8632,-21.2034 -27.2615,15.1453 27.2615,96.9297 40.8922,116.6185 83.299,116.6185 33.3196,0 46.9503,-10.6016 68.1537,-56.0375 l 27.2615,-56.0375 31.8051,56.0375 c 16.6598,30.2906 42.4067,56.0375 56.0375,56.0375 37.8632,0 107.5314,-81.7844 95.4152,-113.5895 -10.6017,-25.747 -12.1162,-25.747 -30.2906,0 -18.1743,25.747 -21.2033,25.747 -30.2905,3.0291 -22.7179,-62.0956 46.9503,-95.4152 113.5895,-53.0085 22.7179,13.6308 36.3487,10.6017 68.1538,-13.6307 24.2324,-19.6889 51.4939,-28.776 71.1827,-24.2325 33.3196,9.0872 34.8342,9.0872 -15.1452,34.8342 -22.7179,12.1162 -31.8051,12.1162 -25.747,1.5145 19.6889,-31.8051 -15.1453,-16.6598 -51.4939,21.2034 -31.8051,34.8341 -37.8632,36.3486 -60.5811,15.1452 -24.2324,-21.2033 -25.747,-21.2033 -18.1743,15.1453 6.0581,31.8051 -6.0581,54.523 -51.494,102.9879 -42.4067,45.4358 -46.9503,53.0084 -13.6307,25.7469 24.2324,-21.2034 48.4649,-42.4067 54.523,-49.9794 z m -372.5737,-13.6307 c -10.6017,-27.2615 -30.2905,-49.9794 -43.9213,-49.9794 -12.1162,0 -42.4067,-19.6889 -66.6392,-42.4068 -46.9503,-45.4358 -83.299,-57.552 -43.9212,-13.6307 12.1162,13.6307 31.805,45.4358 39.3777,69.6682 13.6307,33.3196 24.2324,40.8923 53.0084,36.3487 22.7179,-4.5436 40.8922,3.029 53.0085,21.2034 27.2614,43.9212 31.805,31.805 9.0871,-21.2034 z m 698.197,-643.674 c 34.8341,-46.9504 25.747,-128.7348 -25.747,-205.9757 l -46.9503,-71.1828 -39.3777,48.4649 c -53.0084,63.6101 -54.523,84.8135 -1.5145,110.5604 59.0665,31.8051 63.6101,107.5315 6.0581,122.6767 -21.2034,4.5436 -33.3196,16.6598 -28.776,24.2325 15.1452,22.7179 112.075,1.5145 136.3074,-28.776 z m -140.851,-33.3196 c 4.5436,-16.6598 -1.5145,-33.3196 -13.6308,-37.8632 -24.2324,-9.0872 -42.4067,15.1453 -30.2905,43.9213 12.1162,31.805 34.8341,27.2615 43.9213,-6.0581 z m -430.1257,-74.2119 c -25.747,-40.8922 -87.8426,-63.6101 -171.1416,-60.581 -56.0375,1.5145 -63.6101,3.029 -27.2615,7.5726 25.747,3.029 48.4649,13.6307 48.4649,21.2034 0,19.6888 87.8426,57.552 133.2784,59.0665 28.776,0 30.2905,-4.5436 16.6598,-27.2615 z m -22.7179,-112.075 c 46.9503,-66.6392 16.6598,-210.5192 -53.0085,-260.4986 -46.9503,-31.8051 -155.9963,-31.8051 -212.0338,1.5145 -56.0375,33.3196 -93.9006,113.5895 -81.7844,171.1416 6.0581,24.2324 30.2905,62.0956 56.0375,83.2989 39.3777,33.3196 59.0665,37.8632 155.9963,37.8632 98.4442,0 115.104,-4.5436 134.7929,-33.3196 z m 233.2372,-422.553 c -16.6598,-25.74701 -15.1453,-33.31964 9.0871,-53.0085 16.6598,-12.11621 22.7179,-21.20338 13.6308,-21.20338 -28.7761,0 -65.1247,45.43582 -54.523,69.66828 6.0581,18.1743 -3.0291,21.2034 -46.9504,15.1452 -30.2905,-3.029 -57.552,0 -62.0956,7.5727 -6.0581,7.5726 27.2615,13.6307 74.2119,13.6307 81.7844,0 84.8135,-1.5145 66.6392,-31.805 z m -177.1997,-24.23248 c 4.5436,-6.05811 15.1453,-27.26149 21.2034,-45.43582 9.0871,-31.80506 4.5435,-34.83412 -40.8923,-36.34865 -27.2615,0 -77.2408,-6.0581 -110.5604,-13.63074 -40.8923,-7.57263 24.2324,-10.60169 193.8594,-9.08716 139.3365,0 252.926,-3.02906 252.926,-9.08716 0,-18.17433 -340.7685,-28.77602 -467.9888,-15.14528 -143.8801,16.6598 -180.2287,37.86318 -113.5896,65.12467 115.1041,45.43581 142.3656,60.58108 142.3656,75.72635 0,19.68887 102.9878,9.08717 122.6767,-12.11621 z m -979.89907,-269.58583 10.60169,-45.43581 -30.29055,45.43581 c -15.14527,25.74697 -33.31959,62.09562 -39.3777,83.299 l -10.60169,37.86317 28.77601,-37.86317 c 16.6598,-21.20338 34.83413,-57.55203 40.89224,-83.299 z M 2660.8079,820.98394 c -16.6598,-4.54358 -34.8341,-15.14527 -40.8922,-25.74696 -7.5726,-10.60169 -12.1162,-10.60169 -12.1162,0 0,24.23243 16.6598,36.34865 51.4939,34.83412 30.2905,-1.51453 30.2905,-1.51453 1.5145,-9.08716 z M 755.5328,801.29509 c 21.20338,0 33.3196,-6.05811 27.26149,-15.14528 -6.05811,-9.08716 -24.23243,-12.11621 -42.40676,-6.0581 -28.77601,9.08716 -30.29054,7.57263 -13.63074,-13.63075 25.74696,-30.29054 12.11622,-56.0375 -28.77602,-56.0375 -31.80506,0 -37.86317,30.29054 -10.60169,57.55203 13.63075,13.63074 9.08717,18.17432 -22.7179,18.17432 -22.71791,0 -40.89223,7.57264 -40.89223,16.6598 0,12.11622 16.65979,13.63075 46.95034,7.57264 25.74696,-4.54358 63.61013,-9.08716 84.81351,-9.08716 z m 1817.4325,-21.20338 c -4.5435,-12.11622 -1.5145,-25.74696 9.0872,-28.77602 31.8051,-12.11622 -33.3196,-30.29054 -72.6973,-19.68885 -53.0084,13.63074 -46.9503,39.3777 7.5726,39.3777 25.747,0 45.4359,7.57264 45.4359,15.14527 0,9.08717 4.5435,15.14528 9.0871,15.14528 4.5436,0 6.0581,-9.08717 1.5145,-21.20338 z m 77.2409,-37.86318 c -45.4358,-59.06656 -69.6682,-60.58109 -27.2615,-1.51453 18.1744,25.74696 39.3777,45.43581 46.9504,45.43581 9.0871,0 0,-19.68885 -19.6889,-43.92128 z m -1201.02,-460.41624 c 42.4068,-42.40676 40.8923,-42.40676 -22.7179,6.05811 -93.9006,72.6973 -424.0676,392.26252 -424.0676,411.95137 0,12.11622 221.121,-193.85947 446.7855,-418.00948 z m 772.4089,334.71049 c -118.1332,-128.7348 -425.5822,-396.8061 -540.6862,-472.53245 -39.3777,-25.74696 -42.4068,-25.74696 -84.8135,4.54358 -24.2325,16.6598 -53.0085,42.40676 -65.1247,57.55203 -12.1162,15.14527 7.5726,4.54358 43.9213,-24.23244 l 65.1247,-49.97939 112.075,86.32804 c 171.1415,130.24933 357.4284,298.36184 448.3,399.83516 43.9213,51.49392 86.328,92.38615 93.9007,92.38615 7.5726,0 -25.747,-42.40676 -72.6973,-93.90068 z m 308.9635,-6.05811 c 15.1453,-15.14527 -16.6598,-24.23243 -106.0169,-31.80507 -75.7264,-7.57263 -92.3862,-4.54358 -86.3281,12.11622 9.0872,27.26149 69.6683,43.92128 133.2784,33.3196 28.776,-3.02906 56.0375,-10.60169 59.0666,-13.63075 z m -1606.91329,0 c 49.9794,-13.63074 39.37771,-36.34865 -18.17432,-36.34865 -74.21183,0 -145.3946,16.6598 -136.30744,31.80507 9.08716,15.14527 102.98784,18.17433 154.48176,4.54358 z M 2645.6626,589.26129 c -4.5435,-7.57263 -31.3513,-8.05412 -54.5229,-15.14527 -38.776,-11.86649 -29.0321,5.53093 -28.7352,-41.53486 0.297,-47.06579 6.3283,-100.93295 3.2993,-128.19443 -23.4219,-3.8396 -41.3508,-11.14206 -73.6101,-13.6921 0,9.08716 -2.4273,77.40449 -2.4273,104.66598 -3.0291,46.95034 -6.0582,49.9794 -51.494,48.46487 -86.328,-4.54358 -83.299,3.02905 3.0291,16.6598 68.1537,10.60169 190.8304,34.83412 209.0047,42.40676 3.0291,0 0,-4.54359 -4.5436,-13.63075 z M 1167.4842,492.33156 1247.7541,412.06162 1129.621,393.8873 c -113.5895,-16.6598 -160.53988,-13.63075 -98.4443,6.05811 27.2615,7.57263 31.8051,21.20337 31.8051,92.38615 0,45.43581 6.0581,81.78446 12.1162,81.78446 6.0581,0 48.4649,-36.34865 92.3862,-81.78446 z m 1058.6544,-7.57264 c -4.5435,-66.63919 -1.5145,-71.18277 48.4649,-95.4152 62.0956,-31.80507 155.9963,-33.3196 272.6149,-7.57264 80.2699,18.17433 205.9757,13.63074 174.1706,-7.57264 -30.2905,-18.17432 -269.5858,-43.92128 -331.6814,-34.83412 -77.2409,12.11622 -326.9699,54.83406 -355.7459,63.92122 14.0645,14.58446 33.1516,31.49399 89.1891,87.53149 43.9213,45.43581 87.8426,78.75541 95.4152,72.6973 7.5726,-4.54358 10.6017,-39.3777 7.5726,-78.75541 z M 941.81964,507.47683 c 0,-12.11622 -6.05811,-27.26149 -15.14527,-31.80507 -7.57264,-4.54358 -15.14528,-25.74696 -15.14528,-46.95034 0,-28.77601 -7.57263,-36.34865 -36.34865,-36.34865 -48.46486,0 -68.15371,28.77601 -59.06655,87.84257 7.57263,45.43581 12.11621,48.46487 66.63919,48.46487 40.89223,0 59.06656,-6.05811 59.06656,-21.20338 z M 873.66592,359.05317 c -48.46487,-15.14527 -239.29528,-6.0581 -287.76015,12.11622 -57.55203,22.71791 21.20338,28.77602 178.7142,15.14527 127.22027,-12.11622 146.90912,-16.6598 109.04595,-27.26149 z M 1491.6253,205.24309 c -46.3239,7.69534 -144.5754,-1.91603 -161.2352,-1.91603 -3.0291,0 -90.2086,-6.32829 -209.8563,-24.50261 -361.97194,-51.49392 -510.3956,-51.49392 -652.76114,4.54358 -46.95034,18.17433 -65.12467,68.15372 -45.43582,127.22028 16.6598,51.49392 1.95262,49.6274 69.66825,30.29054 60.67261,-11.7655 118.41691,-17.99614 163.56893,-22.71791 96.92973,-9.08716 175.68514,-6.05811 331.68143,15.14527 284.73115,37.86318 292.30375,39.37771 319.56525,25.74696 13.6307,-6.0581 174.2029,-141.69387 184.8046,-153.81008 z m 1381.2164,111.40333 c 13.6308,-80.26994 -19.6888,-115.10406 -136.3074,-145.39461 -7.5727,-3.02905 -56.0375,-16.65979 -106.0169,-30.29053 -80.27,-21.20338 -110.5605,-22.71791 -257.4696,-6.05811 -90.8717,10.60168 -218.0919,28.77601 -280.1875,40.89223 -62.0957,12.11621 -272.025,18.75558 -296.2574,21.78463 43.5402,33.73296 61.5057,44.85456 131.1739,108.4647 34.8341,30.29054 60.8104,57.86311 78.9847,57.86311 16.6598,0 120.9329,-15.45636 208.7755,-32.11615 87.8425,-15.14527 196.8885,-30.29055 242.3243,-30.29055 99.9588,-3.02905 271.1003,21.20338 315.0216,43.92129 19.0872,6.49406 34.0872,13.48542 42.3024,15.18618 33.1664,7.80367 44.5977,4.80353 57.6564,-43.96219 z"
       id="path12"
       inkscape:connector-curvature="0"
       sodipodi:nodetypes="cccccccscscccccccssccccsscsccssccccccccsccccccccscccccscccccscsccsccccccscssscscsccsccccsccccccccccccccccccscccccsccccssccccsccccccccccscccscccccccccccccccsscssccscsssccccccscscccsccccssssssscccccscsssccccccccscscsssccscssccscscccccccccccssccccccccscccccccsccscsccscccccccccccsccccccccscscccccscccsccscsscccscccsccccccccccccssccscccscscccccccccccccsccccccccccccccsscscccsccccsccscccscccsccccccsccsccccccccccsccssccsssscssccssssccscccsccccsccccscscccscssccszcccccccccccssccccccccccscsscsscccccsccccccccccccsccsccccc"
       style="fill:#ffffff;stroke-width:1.51452708" />
    <path
       d="m 1082.6707,2193.1455 c 12.1162,-43.9213 -10.6017,-96.9297 -72.6973,-169.627 -30.29059,-34.8342 -60.58113,-86.3281 -68.15376,-115.1041 -15.14527,-59.0665 1.51452,-160.5399 30.29054,-189.3159 12.11622,-12.1162 13.63074,-6.0581 1.51453,25.747 -36.34865,96.9297 -13.63075,184.7723 75.72639,299.8763 24.2324,30.2906 43.9212,63.6102 43.9212,72.6973 0,9.0872 7.5727,16.6598 15.1453,16.6598 27.2615,0 75.7264,-124.1912 75.7264,-193.8594 0,-74.2118 -15.1453,-109.046 -77.2409,-181.7433 -66.6392,-75.7263 -51.4939,-90.8716 16.6598,-19.6888 110.5605,113.5895 116.6186,184.7723 30.2905,361.972 -57.552,119.6476 -87.8425,160.5398 -71.1827,92.3861 z"
       id="path14"
       style="fill:#ffffff;stroke-width:1.51452708"
       inkscape:connector-curvature="0" />
    <path
       d="m 1035.7203,1846.3188 c -34.8341,-69.6682 -40.89222,-140.851 -13.6307,-177.1997 24.2324,-31.805 42.4067,-21.2033 31.805,18.1744 -4.5435,21.2033 3.0291,66.6391 16.6598,106.0169 18.1744,45.4358 22.7179,78.7554 13.6308,96.9297 -12.1162,24.2324 -18.1743,18.1743 -48.4649,-43.9213 z"
       id="path16"
       style="fill:#ffffff;stroke-width:1.51452708"
       inkscape:connector-curvature="0" />
    <path
       d="m 1968.669,1723.6421 c -15.1452,-7.5726 -34.8341,-30.2905 -43.9212,-48.4649 l -15.1453,-33.3196 27.2615,31.8051 c 15.1452,18.1743 40.8922,39.3777 57.552,48.4649 16.6598,9.0871 24.2324,16.6598 15.1453,16.6598 -7.5727,0 -27.2615,-6.0581 -40.8923,-15.1453 z"
       id="path18"
       style="fill:#ffffff;stroke-width:1.51452708"
       inkscape:connector-curvature="0" />
  </g>
</svg>
