<?xml version="1.0" standalone="no"?>
<!DOCTYPE svg PUBLIC "-//W3C//DTD SVG 20010904//EN"
 "http://www.w3.org/TR/2001/REC-SVG-20010904/DTD/svg10.dtd">
<svg version="1.0" xmlns="http://www.w3.org/2000/svg"
 width="170.710367pt" height="194.792928pt" viewBox="0 0 170.710367 194.792928"
 preserveAspectRatio="xMidYMid meet">
<metadata>
Created by potrace 1.12, written by Peter Selinger 2001-2015
</metadata>
<g transform="translate(-15.000000,197.800388) scale(0.100000,-0.100000)"
fill="#000000" stroke="none">
<path d="M987 1970 c-3 -8 -14 -40 -25 -70 l-20 -55 -63 -2 c-35 -1 -68 -2
-74 -2 -5 -1 9 -19 30 -42 l40 -41 -39 26 c-36 24 -46 26 -143 25 -56 -1 -103
-4 -103 -6 0 -2 4 -12 10 -22 8 -16 4 -19 -33 -26 -23 -4 -78 -8 -122 -9 -70
-2 -88 -7 -145 -38 -36 -19 -72 -37 -80 -40 -13 -4 -13 -7 -1 -22 12 -14 12
-19 -1 -34 -16 -19 -68 -107 -68 -116 0 -3 29 -6 63 -6 l64 0 6 -192 c3 -106
13 -233 22 -283 28 -155 93 -325 166 -432 16 -23 29 -44 29 -47 0 -3 -33 -6
-73 -6 -53 0 -83 5 -112 20 -22 11 -41 20 -42 20 -6 0 10 -56 28 -99 18 -41
18 -45 3 -63 -10 -10 -26 -18 -37 -18 -10 0 -35 -16 -54 -35 -34 -34 -35 -38
-29 -84 4 -34 1 -64 -9 -96 -15 -42 -15 -49 -1 -70 33 -51 204 -75 376 -52
364 46 370 47 416 12 l34 -26 30 22 c35 26 80 27 225 5 203 -32 236 -36 287
-36 136 0 279 46 298 95 7 18 7 33 -1 47 -6 11 -10 53 -10 93 1 68 -1 75 -26
95 -14 11 -44 23 -65 26 -27 5 -43 14 -52 32 -12 22 -10 29 21 74 42 63 44 82
6 62 -18 -9 -58 -14 -110 -14 l-83 0 50 93 c109 205 145 360 156 677 l6 175
60 1 c32 1 62 4 65 7 6 6 -61 92 -91 118 -20 16 -20 16 2 23 31 10 27 21 -10
37 -18 7 -51 24 -73 38 -40 25 -97 33 -252 35 -55 1 -61 4 -41 24 20 20 1 26
-103 29 -82 3 -106 1 -128 -13 -22 -14 -21 -11 8 20 l35 36 -71 0 c-39 0 -79
3 -89 7 -13 5 -16 3 -11 -9 7 -19 -28 -55 -37 -39 -9 14 -5 135 4 141 4 3 4
14 0 25 -6 16 -9 17 -13 5z m-29 -152 c29 -29 11 -36 -40 -16 -69 26 -70 28
-17 28 25 0 50 -5 57 -12z m170 -36 c-14 -15 -23 -33 -21 -39 3 -7 0 -13 -7
-13 -6 0 -8 5 -5 10 3 6 -4 10 -17 10 -23 0 -56 16 -48 23 11 8 115 44 119 41
3 -2 -7 -17 -21 -32z m-352 8 c27 -11 28 -12 9 -22 -11 -6 -25 -17 -31 -24
-10 -12 -17 -12 -50 1 -55 22 -84 37 -84 44 0 11 127 12 156 1z m563 -16 c7
-7 -63 -43 -96 -49 -38 -7 -56 1 -33 15 11 7 11 11 1 23 -9 12 -9 16 1 20 12
6 119 -2 127 -9z m-420 -90 c-23 -24 -44 -42 -47 -40 -9 9 41 88 61 95 37 14
32 -8 -14 -55z m191 -57 c0 -9 -52 17 -91 44 -21 15 -25 24 -21 50 l5 32 53
-59 c29 -32 53 -62 54 -67z m-525 100 c29 -22 9 -37 -48 -37 -75 0 -90 14 -36
33 56 20 61 20 84 4z m96 1 c1 -7 1 -16 1 -20 -1 -3 17 -13 40 -22 22 -9 38
-19 35 -22 -6 -6 -65 18 -91 38 -10 8 -16 20 -12 26 10 16 26 15 27 0z m638
-40 c-49 -41 -57 -34 -13 12 22 23 41 35 43 28 2 -7 -11 -25 -30 -40z m191 30
c21 -8 22 -11 9 -18 -9 -5 -38 -14 -64 -20 -41 -9 -51 -8 -64 5 -15 15 -14 18
8 36 25 20 51 20 111 -3z m-1093 0 c0 -7 4 -20 7 -29 6 -13 -1 -17 -33 -22
-23 -3 -59 -3 -81 0 l-41 6 48 28 c51 29 99 38 100 17z m1234 -9 c27 -12 49
-25 49 -29 0 -8 -112 -22 -119 -15 -2 3 2 12 10 21 11 14 11 18 -6 30 -17 13
-17 14 -1 14 9 0 40 -10 67 -21z m-500 -34 c34 -16 34 -16 4 -10 -16 4 -34 11
-39 16 -14 13 -3 11 35 -6z m-569 -13 c48 -10 90 -21 94 -25 4 -3 -9 -14 -29
-23 -47 -22 -94 -12 -143 31 -45 40 -40 41 78 17z m933 -7 c-16 -14 -40 -30
-53 -35 -46 -20 -141 -6 -118 17 7 8 143 39 181 42 17 1 15 -3 -10 -24z m-675
1 c0 -22 -153 -136 -166 -123 -5 5 26 60 48 84 40 43 118 68 118 39z m900 -16
c0 -24 -131 -42 -145 -19 -11 17 2 23 58 29 55 6 87 2 87 -10z m-1291 -9 c14
-24 5 -31 -40 -31 -42 0 -139 29 -139 42 0 4 38 8 85 8 72 0 86 -3 94 -19z
m825 -16 c37 -34 62 -95 44 -106 -38 -25 -123 1 -172 52 -24 25 -33 39 -22 35
15 -5 17 -2 13 14 -3 11 -3 20 1 20 3 0 40 -27 83 -60 42 -33 81 -60 85 -60 4
0 -13 16 -39 36 -55 43 -82 80 -64 87 26 11 45 6 71 -18z m-344 7 c0 -18 -34
-54 -70 -72 -40 -21 -114 -27 -124 -11 -8 12 79 61 108 61 11 1 32 7 46 15 29
16 40 18 40 7z m70 -17 c0 -14 5 -25 10 -25 6 0 10 7 10 15 0 8 5 15 10 15 6
0 10 -16 10 -35 0 -24 -5 -35 -15 -35 -8 0 -16 6 -16 13 -1 6 -5 -4 -8 -23
l-7 -35 -20 40 c-21 39 -21 58 -1 83 15 19 27 14 27 -13z m563 -20 c32 -29 34
-35 6 -35 -11 0 -17 -4 -14 -10 3 -6 -5 -10 -19 -10 -13 0 -26 -4 -28 -9 -3
-9 -34 -14 -75 -12 -12 1 -35 13 -50 27 l-28 25 55 -4 c52 -4 51 -1 -5 18 -16
6 -11 10 25 20 70 19 102 17 133 -10z m-1063 10 c0 -2 -12 -12 -27 -20 -16 -9
-19 -13 -8 -10 11 3 48 9 82 12 53 5 63 3 63 -10 0 -27 -41 -47 -97 -47 -40 0
-53 4 -53 15 0 18 -5 18 -31 5 -23 -13 -24 -2 -4 27 8 12 28 24 43 26 15 2 28
5 30 6 1 0 2 -1 2 -4z m-260 -13 c0 -14 -39 -46 -47 -39 -3 4 2 16 12 27 19
21 35 26 35 12z m138 -9 c2 -9 -11 -13 -46 -13 -45 0 -51 -3 -54 -22 -3 -20
-10 -23 -53 -26 l-50 -3 38 26 c75 52 154 70 165 38z m1416 -8 c21 -32 9 -32
-29 0 -27 22 -28 24 -9 25 12 0 29 -11 38 -25z m-44 -12 c70 -36 77 -55 19
-51 -40 3 -44 6 -47 31 -3 25 -6 27 -53 27 -31 0 -48 4 -44 10 11 19 71 10
125 -17z m-619 -46 c3 -4 16 -10 30 -12 13 -3 25 -9 27 -13 1 -5 10 -18 18
-28 14 -18 15 -18 5 3 -18 36 -14 42 21 32 18 -5 52 -9 76 -9 39 0 43 2 37 20
-6 19 -5 19 29 5 46 -19 102 -19 157 1 24 8 71 16 104 17 l60 2 -2 -213 c-2
-227 -14 -321 -58 -461 -39 -123 -173 -371 -200 -371 -8 0 -171 157 -222 213
-3 4 2 14 13 22 10 8 15 15 11 15 -5 0 1 12 12 26 12 15 26 44 32 66 6 22 13
38 16 35 10 -11 -9 -68 -34 -97 -14 -17 -20 -30 -15 -30 5 0 15 7 22 15 7 9
21 13 31 10 15 -5 17 -1 12 32 -4 34 1 46 45 107 58 78 69 119 48 170 -18 43
-53 67 -108 72 -41 3 -41 3 -8 -4 97 -22 126 -91 75 -179 -33 -55 -42 -56 -14
-1 23 45 27 94 10 126 -15 28 -74 44 -109 31 -33 -13 -42 -26 -42 -62 0 -33
20 -43 52 -27 22 12 22 12 6 -6 -24 -24 -69 -9 -79 26 -5 19 -7 20 -8 6 -1
-11 6 -28 15 -38 29 -32 -10 -33 -79 -3 -86 38 -104 57 -91 93 9 22 7 38 -6
72 -10 24 -20 38 -24 32 -4 -6 -1 -20 5 -30 13 -20 6 -52 -10 -52 -5 0 -12 8
-15 18 -3 9 -3 -1 -1 -22 2 -22 10 -43 17 -48 10 -7 10 -9 -2 -5 -8 2 -21 -4
-30 -14 -14 -16 -151 -69 -179 -69 -7 0 -27 -16 -46 -36 -28 -29 -37 -34 -53
-25 -21 11 -34 56 -25 90 4 15 1 21 -12 21 -15 0 -17 -8 -13 -57 4 -46 10 -60
31 -78 15 -11 27 -26 27 -33 0 -20 -25 -13 -51 14 -22 23 -24 33 -22 102 2 69
1 74 -13 60 -19 -19 -26 -97 -13 -150 6 -21 21 -46 37 -58 15 -12 56 -43 91
-70 35 -28 67 -50 72 -50 25 0 -1 -36 -99 -133 l-109 -109 -34 49 c-180 251
-239 456 -239 828 l0 187 48 -6 c26 -4 75 -12 108 -18 47 -8 71 -8 105 1 93
26 92 26 84 1 -7 -22 -5 -23 26 -16 71 14 117 18 122 10 9 -15 -27 -78 -50
-90 -13 -6 -20 -14 -16 -17 13 -13 36 -7 70 19 l33 25 24 -28 c23 -26 26 -27
42 -11 11 11 14 23 9 35 -5 12 -9 14 -12 6 -8 -23 -25 -14 -18 10 18 64 27 77
55 77 22 0 31 -7 45 -37 l18 -37 21 37 c11 20 28 37 37 37 25 0 71 -54 63 -75
-7 -17 -8 -17 -20 0 -12 17 -14 17 -20 2 -15 -41 31 -63 75 -35 15 9 24 7 45
-9 16 -13 34 -19 47 -16 22 6 23 6 -10 23 -15 8 -21 8 -17 1 13 -21 -10 -11
-34 14 -21 23 -25 24 -40 10 -16 -14 -17 -14 -12 10 4 21 -4 36 -34 68 -28 30
-31 35 -9 17 16 -14 32 -28 36 -33z m-246 -9 c-7 -18 -20 -33 -29 -33 -8 0
-28 -13 -44 -28 -31 -30 -55 -38 -29 -9 8 9 21 30 26 46 9 22 16 27 35 24 15
-3 27 2 35 14 18 29 21 21 6 -14z m461 -425 c23 -31 17 -85 -17 -136 l-31 -47
-26 32 c-35 42 -36 56 -1 73 39 21 42 71 4 81 -14 3 -22 11 -19 16 10 15 74 1
90 -19z m-93 -22 c3 -11 -1 -22 -9 -25 -16 -6 -28 10 -20 29 8 21 23 18 29 -4z
m-284 -49 c-17 -27 -58 -42 -113 -40 -37 1 -42 2 -18 5 17 2 32 9 32 14 0 13
58 38 88 39 19 0 20 -3 11 -18z m-15 -74 c31 -44 11 -139 -35 -172 -31 -21
-103 -21 -140 1 -37 22 -62 75 -54 113 4 16 20 41 37 55 26 22 39 25 103 25
65 0 76 -3 89 -22z m154 -279 c-11 -17 -10 -22 6 -35 11 -8 15 -14 9 -14 -19
0 -43 30 -36 46 4 12 -2 14 -31 10 -20 -2 -38 0 -41 5 -4 5 18 9 49 9 54 0 56
-1 44 -21z m-117 -16 c3 -4 10 -18 14 -30 6 -21 3 -23 -27 -24 -18 0 -51 -4
-73 -9 -27 -5 16 -7 128 -6 92 0 167 -2 167 -6 0 -12 -225 -19 -309 -10 -95
11 -119 25 -75 43 76 30 94 40 94 50 0 13 68 6 81 -8z m-647 -178 l7 -30 -20
30 c-10 17 -22 41 -26 55 l-7 25 19 -25 c11 -14 23 -38 27 -55z m1331 68 c-11
-3 -23 -10 -27 -17 -5 -7 -8 -7 -8 0 0 16 11 24 34 23 20 -1 20 -1 1 -6z
m-1258 -13 c14 0 22 -4 18 -10 -4 -6 -16 -8 -28 -4 -19 6 -20 5 -9 -9 17 -20
8 -37 -19 -37 -21 0 -25 20 -7 38 9 9 6 12 -15 12 -15 0 -27 5 -27 11 0 8 11
9 31 5 17 -3 42 -6 56 -6z m1200 -14 c-3 -8 -1 -17 6 -19 21 -8 -22 -20 -48
-13 -35 9 -31 26 5 26 17 0 30 5 30 10 0 6 3 10 6 10 3 0 4 -6 1 -14z m51 -25
c-30 -39 -46 -40 -18 -1 12 17 26 30 31 30 6 0 0 -13 -13 -29z m-793 -304 c28
-28 27 -28 -15 4 -62 48 -280 259 -280 272 0 8 146 -128 295 -276z m510 221
c-78 -85 -281 -262 -357 -312 -26 -17 -28 -17 -56 3 -16 11 -35 28 -43 38 -8
10 5 3 29 -16 l43 -33 74 57 c113 86 236 197 296 264 29 34 57 61 62 61 5 0
-17 -28 -48 -62z m204 -4 c10 -10 -11 -16 -70 -21 -50 -5 -61 -3 -57 8 6 18
46 29 88 22 19 -2 37 -7 39 -9z m-1061 0 c33 -9 26 -24 -12 -24 -49 0 -96 11
-90 21 6 10 68 12 102 3z m1137 -14 c-3 -5 -20 -10 -36 -10 -25 0 -29 -3 -25
-22 6 -26 9 -57 7 -75 -1 -17 -49 -17 -48 0 0 6 -1 27 -1 45 -2 31 -4 33 -34
32 -57 -3 -55 2 2 11 45 7 126 23 138 28 2 0 0 -3 -3 -9z m-976 -64 l53 -53
-78 -12 c-75 -11 -106 -9 -65 4 18 5 21 14 21 61 0 30 4 54 8 54 4 0 32 -24
61 -54z m699 -5 c-3 -44 -1 -47 32 -63 41 -21 103 -22 180 -5 53 12 136 9 115
-5 -20 -12 -178 -29 -219 -23 -51 8 -196 35 -215 41 -10 3 2 22 39 59 29 30
58 52 63 48 5 -3 7 -26 5 -52z m-848 15 c0 -8 -4 -18 -10 -21 -5 -3 -10 -17
-10 -31 0 -19 -5 -24 -24 -24 -32 0 -45 19 -39 58 5 30 8 32 44 32 27 0 39 -4
39 -14z m-45 -98 c-32 -10 -158 -4 -190 8 -38 15 14 19 118 10 84 -8 97 -11
72 -18z m314 -22 c11 -13 7 -76 -4 -76 -2 0 -68 -9 -147 -21 -239 -34 -337
-34 -431 3 -31 12 -43 45 -30 84 11 34 26 40 46 20 8 -8 17 -13 19 -11 2 3 42
1 89 -4 64 -6 116 -4 219 10 188 25 193 26 211 17 9 -4 21 -14 28 -22z m1006
-6 c9 -53 -13 -76 -90 -96 -5 -2 -37 -11 -70 -20 -53 -14 -73 -15 -170 -4 -60
7 -144 19 -185 27 -41 8 -88 16 -104 18 -49 6 -51 26 -5 68 23 20 51 37 63 37
11 0 69 -9 127 -20 58 -10 130 -20 160 -20 66 -2 179 14 208 29 12 7 21 8 21
4 0 -4 5 -2 12 5 20 20 26 14 33 -28z"/>
<path d="M633 1429 c8 -29 -7 -64 -48 -112 -20 -23 -40 -57 -45 -76 -10 -39 1
-106 20 -125 8 -8 9 -4 1 17 -24 64 -9 122 50 198 16 20 29 42 29 48 0 6 5 11
10 11 18 0 50 -82 50 -128 0 -49 -10 -72 -51 -120 -44 -50 -34 -60 11 -13 73
75 77 122 20 239 -38 79 -58 106 -47 61z"/>
<path d="M602 1200 c-23 -46 -27 -93 -9 -117 16 -21 28 -14 21 12 -3 14 2 44
11 70 12 30 15 52 9 64 -8 16 -12 12 -32 -29z"/>
<path d="M1218 1119 c-10 -5 -23 -20 -29 -32 l-10 -22 18 21 c10 12 27 26 38
32 11 6 16 11 10 11 -5 0 -18 -4 -27 -10z"/>
</g>
</svg>
